<svg xmlns="http://www.w3.org/2000/svg" xmlns:xlink="http://www.w3.org/1999/xlink" width="800" zoomAndPan="magnify" viewBox="0 0 600 599.999999" height="800" preserveAspectRatio="xMidYMid meet" version="1.0"><defs><g/><clipPath id="edfb7e8f11"><path d="M 5.265625 153.210938 L 271.515625 153.210938 L 271.515625 384.113281 L 5.265625 384.113281 Z M 5.265625 153.210938 " clip-rule="nonzero"/></clipPath><clipPath id="c3b34720df"><path d="M 479 207 L 579.414062 207 L 579.414062 394.652344 L 479 394.652344 Z M 479 207 " clip-rule="nonzero"/></clipPath><clipPath id="4f41925ca3"><path d="M 506 156.152344 L 552 156.152344 L 552 202 L 506 202 Z M 506 156.152344 " clip-rule="nonzero"/></clipPath></defs><g clip-path="url(#edfb7e8f11)"><path fill="#ff0000" d="M 120.066406 384.113281 C 56.777344 384.113281 5.265625 332.539062 5.265625 269.128906 C 5.265625 205.742188 56.777344 154.152344 120.066406 154.152344 C 146.023438 154.152344 170.015625 162.820312 189.261719 177.453125 L 180.324219 188.089844 C 163.496094 175.503906 142.640625 168.050781 120.066406 168.050781 C 64.429688 168.050781 19.144531 213.40625 19.144531 269.128906 C 19.144531 324.875 64.429688 370.210938 120.066406 370.210938 C 175.707031 370.210938 220.992188 324.875 220.992188 269.128906 C 220.992188 268.679688 220.992188 268.207031 220.972656 267.757812 L 234.855469 267.757812 C 234.871094 268.207031 234.871094 268.679688 234.871094 269.128906 C 234.871094 332.539062 183.359375 384.113281 120.066406 384.113281 Z M 249.648438 246.425781 L 206.875 246.425781 L 206.875 254.472656 L 249.648438 254.503906 Z M 249.648438 225.847656 L 206.882812 225.847656 L 206.882812 242.769531 L 249.648438 242.769531 Z M 271.515625 207.632812 L 249.898438 180.421875 L 228.265625 153.210938 L 206.652344 180.421875 L 185.027344 207.632812 L 206.894531 207.632812 L 206.894531 214.117188 L 206.882812 222.195312 L 249.648438 222.195312 L 249.648438 207.632812 Z M 157.207031 235.640625 C 156.703125 235.132812 156.054688 234.878906 155.265625 234.878906 L 140.832031 234.878906 C 139.875 230.207031 138.074219 226.144531 135.429688 222.710938 L 155.097656 222.710938 C 155.890625 222.710938 156.535156 222.453125 157.042969 221.949219 C 157.542969 221.441406 157.796875 220.792969 157.796875 220.003906 L 157.796875 211.378906 C 157.796875 210.589844 157.542969 209.941406 157.042969 209.433594 C 156.53125 208.929688 155.890625 208.671875 155.097656 208.671875 L 84.871094 208.671875 C 84.082031 208.671875 83.433594 208.929688 82.929688 209.433594 C 82.421875 209.941406 82.167969 210.589844 82.167969 211.378906 L 82.167969 222.625 C 82.167969 223.355469 82.4375 223.988281 82.96875 224.523438 C 83.507812 225.058594 84.140625 225.328125 84.871094 225.328125 L 97.109375 225.328125 C 108.984375 225.328125 116.523438 228.511719 119.730469 234.878906 L 84.871094 234.878906 C 84.082031 234.878906 83.433594 235.132812 82.929688 235.640625 C 82.421875 236.148438 82.167969 236.796875 82.167969 237.585938 L 82.167969 246.210938 C 82.167969 246.996094 82.421875 247.644531 82.929688 248.152344 C 83.433594 248.660156 84.082031 248.910156 84.871094 248.910156 L 120.914062 248.910156 C 119.675781 253.535156 116.789062 257.058594 112.261719 259.476562 C 107.730469 261.90625 101.75 263.117188 94.324219 263.117188 L 84.871094 263.117188 C 84.140625 263.117188 83.507812 263.382812 82.96875 263.921875 C 82.4375 264.453125 82.167969 265.085938 82.167969 265.820312 L 82.167969 276.558594 C 82.167969 277.292969 82.421875 277.914062 82.929688 278.417969 C 93.730469 289.914062 107.742188 306.003906 124.964844 326.6875 C 125.472656 327.367188 126.175781 327.707031 127.074219 327.707031 L 143.53125 327.707031 C 144.71875 327.707031 145.535156 327.199219 145.984375 326.183594 C 146.542969 325.167969 146.433594 324.210938 145.644531 323.3125 C 129.214844 303.132812 116.296875 288.027344 106.902344 277.992188 C 116.46875 276.871094 124.234375 273.769531 130.199219 268.695312 C 136.164062 263.621094 139.792969 257.03125 141.089844 248.914062 L 155.265625 248.914062 C 156.054688 248.914062 156.703125 248.660156 157.207031 248.152344 C 157.714844 247.648438 157.96875 247 157.96875 246.210938 L 157.96875 237.585938 C 157.96875 236.796875 157.714844 236.148438 157.207031 235.640625 " fill-opacity="1" fill-rule="nonzero"/></g><g fill="#000000" fill-opacity="1"><g transform="translate(225.144204, 390.274099)"><g><path d="M 39.921875 -24.265625 L 87.9375 -24.265625 L 87.9375 0 L 13.765625 0 L 13.765625 -120.453125 L 86.046875 -120.453125 L 86.046875 -96.359375 L 39.921875 -96.359375 L 39.921875 -72.609375 L 81.5625 -72.609375 L 81.5625 -49.046875 L 39.921875 -49.046875 Z M 39.921875 -24.265625 "/></g></g></g><g fill="#000000" fill-opacity="1"><g transform="translate(321.326125, 390.274099)"><g><path d="M 161.40625 0 L 134.90625 0 L 123.03125 -78.640625 L 87.078125 -0.171875 L 80.703125 -0.171875 L 44.734375 -78.640625 L 32.859375 0 L 6.1875 0 L 25.125 -120.453125 L 51.28125 -120.453125 L 83.796875 -46.640625 L 116.5 -120.453125 L 142.65625 -120.453125 Z M 161.40625 0 "/></g></g></g><g clip-path="url(#c3b34720df)"><path fill="#000000" d="M 487.621094 303.382812 C 487.777344 303.382812 487.9375 303.378906 488.09375 303.367188 C 492.519531 303.109375 495.894531 299.300781 495.636719 294.867188 C 495.246094 288.179688 495.066406 282.089844 495.070312 276.542969 C 495.035156 252.195312 498.574219 238.515625 502.050781 231.378906 L 502.050781 382.207031 C 502.050781 389.074219 507.605469 394.636719 514.453125 394.636719 C 521.300781 394.636719 526.851562 389.074219 526.851562 382.207031 L 526.851562 291.4375 L 531.5 291.4375 L 531.5 382.207031 C 531.5 389.074219 537.054688 394.636719 543.898438 394.636719 C 550.746094 394.636719 556.300781 389.074219 556.300781 382.207031 L 556.300781 231.421875 C 556.894531 232.644531 557.492188 234.046875 558.085938 235.683594 C 560.910156 243.539062 563.289062 256.429688 563.28125 276.546875 C 563.28125 282.089844 563.101562 288.183594 562.710938 294.867188 C 562.457031 299.304688 565.832031 303.109375 570.253906 303.371094 C 570.414062 303.378906 570.570312 303.382812 570.730469 303.382812 C 574.949219 303.382812 578.484375 300.082031 578.734375 295.808594 C 579.136719 288.835938 579.328125 282.433594 579.328125 276.546875 C 579.289062 246.199219 574.453125 229.402344 567.859375 219.304688 C 564.5625 214.289062 560.710938 211.074219 557.148438 209.292969 C 553.71875 207.558594 550.703125 207.167969 548.894531 207.148438 C 548.78125 207.144531 548.664062 207.128906 548.546875 207.128906 L 509.800781 207.128906 C 509.695312 207.128906 509.59375 207.140625 509.488281 207.144531 C 507.6875 207.164062 504.652344 207.546875 501.195312 209.292969 C 495.804688 211.972656 489.988281 217.839844 485.917969 228.238281 C 481.800781 238.671875 479.035156 253.761719 479.023438 276.542969 C 479.023438 282.433594 479.207031 288.835938 479.617188 295.808594 C 479.867188 300.082031 483.402344 303.382812 487.621094 303.382812 Z M 487.621094 303.382812 " fill-opacity="1" fill-rule="nonzero"/></g><g clip-path="url(#4f41925ca3)"><path fill="#000000" d="M 551.738281 178.777344 C 551.738281 179.519531 551.703125 180.257812 551.628906 180.996094 C 551.558594 181.730469 551.449219 182.464844 551.304688 183.191406 C 551.160156 183.917969 550.980469 184.636719 550.765625 185.34375 C 550.554688 186.054688 550.304688 186.75 550.023438 187.433594 C 549.738281 188.121094 549.421875 188.789062 549.074219 189.441406 C 548.726562 190.09375 548.347656 190.730469 547.9375 191.347656 C 547.527344 191.960938 547.085938 192.554688 546.617188 193.128906 C 546.148438 193.703125 545.652344 194.25 545.128906 194.773438 C 544.609375 195.296875 544.0625 195.796875 543.488281 196.265625 C 542.917969 196.734375 542.324219 197.175781 541.710938 197.585938 C 541.097656 198 540.464844 198.378906 539.8125 198.730469 C 539.160156 199.078125 538.492188 199.394531 537.808594 199.679688 C 537.125 199.960938 536.433594 200.210938 535.726562 200.425781 C 535.015625 200.640625 534.300781 200.820312 533.578125 200.964844 C 532.851562 201.109375 532.121094 201.21875 531.386719 201.292969 C 530.652344 201.363281 529.914062 201.402344 529.175781 201.402344 C 528.433594 201.402344 527.699219 201.363281 526.960938 201.292969 C 526.226562 201.21875 525.496094 201.109375 524.773438 200.964844 C 524.046875 200.820312 523.332031 200.640625 522.625 200.425781 C 521.917969 200.210938 521.222656 199.960938 520.539062 199.679688 C 519.855469 199.394531 519.1875 199.078125 518.539062 198.730469 C 517.886719 198.378906 517.253906 198 516.636719 197.585938 C 516.023438 197.175781 515.429688 196.734375 514.859375 196.265625 C 514.289062 195.796875 513.742188 195.296875 513.21875 194.773438 C 512.695312 194.25 512.199219 193.703125 511.730469 193.128906 C 511.261719 192.554688 510.824219 191.960938 510.414062 191.347656 C 510.003906 190.730469 509.621094 190.09375 509.273438 189.441406 C 508.925781 188.789062 508.609375 188.121094 508.328125 187.433594 C 508.042969 186.75 507.796875 186.054688 507.582031 185.34375 C 507.367188 184.636719 507.1875 183.917969 507.042969 183.191406 C 506.898438 182.464844 506.789062 181.730469 506.71875 180.996094 C 506.644531 180.257812 506.609375 179.519531 506.609375 178.777344 C 506.609375 178.035156 506.644531 177.296875 506.71875 176.558594 C 506.789062 175.824219 506.898438 175.089844 507.042969 174.363281 C 507.1875 173.636719 507.367188 172.917969 507.582031 172.210938 C 507.796875 171.5 508.042969 170.804688 508.328125 170.121094 C 508.609375 169.433594 508.925781 168.765625 509.273438 168.113281 C 509.621094 167.460938 510.003906 166.824219 510.414062 166.207031 C 510.824219 165.59375 511.261719 164.996094 511.730469 164.425781 C 512.199219 163.851562 512.695312 163.304688 513.21875 162.78125 C 513.742188 162.257812 514.289062 161.757812 514.859375 161.289062 C 515.429688 160.820312 516.023438 160.378906 516.636719 159.964844 C 517.253906 159.554688 517.886719 159.175781 518.539062 158.824219 C 519.1875 158.476562 519.855469 158.160156 520.539062 157.875 C 521.222656 157.59375 521.917969 157.34375 522.625 157.128906 C 523.332031 156.914062 524.046875 156.734375 524.773438 156.589844 C 525.496094 156.445312 526.226562 156.335938 526.960938 156.261719 C 527.699219 156.191406 528.433594 156.152344 529.175781 156.152344 C 529.914062 156.152344 530.652344 156.191406 531.386719 156.261719 C 532.121094 156.335938 532.851562 156.445312 533.578125 156.589844 C 534.300781 156.734375 535.015625 156.914062 535.726562 157.128906 C 536.433594 157.34375 537.125 157.59375 537.808594 157.875 C 538.492188 158.160156 539.160156 158.476562 539.8125 158.824219 C 540.464844 159.175781 541.097656 159.554688 541.710938 159.964844 C 542.324219 160.378906 542.917969 160.820312 543.488281 161.289062 C 544.0625 161.757812 544.609375 162.257812 545.128906 162.78125 C 545.652344 163.304688 546.148438 163.851562 546.617188 164.425781 C 547.085938 164.996094 547.527344 165.59375 547.9375 166.207031 C 548.347656 166.824219 548.726562 167.460938 549.074219 168.113281 C 549.421875 168.765625 549.738281 169.433594 550.023438 170.121094 C 550.304688 170.804688 550.554688 171.5 550.765625 172.210938 C 550.980469 172.917969 551.160156 173.636719 551.304688 174.363281 C 551.449219 175.089844 551.558594 175.824219 551.628906 176.558594 C 551.703125 177.296875 551.738281 178.035156 551.738281 178.777344 Z M 551.738281 178.777344 " fill-opacity="1" fill-rule="nonzero"/></g><g fill="#000000" fill-opacity="1"><g transform="translate(250.761054, 240.908328)"><g><path d="M 12.40625 -7.921875 L 24.921875 -7.921875 C 25.222656 -7.921875 25.476562 -7.8125 25.6875 -7.59375 C 25.90625 -7.382812 26.015625 -7.128906 26.015625 -6.828125 L 26.015625 -1.09375 C 26.015625 -0.800781 25.90625 -0.546875 25.6875 -0.328125 C 25.476562 -0.109375 25.222656 0 24.921875 0 L 3.734375 0 C 3.441406 0 3.1875 -0.109375 2.96875 -0.328125 C 2.75 -0.546875 2.640625 -0.800781 2.640625 -1.09375 L 2.640625 -27.359375 C 2.640625 -27.660156 2.75 -27.914062 2.96875 -28.125 C 3.1875 -28.34375 3.441406 -28.453125 3.734375 -28.453125 L 24.59375 -28.453125 C 24.894531 -28.453125 25.148438 -28.34375 25.359375 -28.125 C 25.578125 -27.914062 25.6875 -27.660156 25.6875 -27.359375 L 25.6875 -21.625 C 25.6875 -21.332031 25.578125 -21.078125 25.359375 -20.859375 C 25.148438 -20.640625 24.894531 -20.53125 24.59375 -20.53125 L 12.40625 -20.53125 L 12.40625 -17.96875 L 23.703125 -17.96875 C 24.003906 -17.96875 24.257812 -17.859375 24.46875 -17.640625 C 24.6875 -17.421875 24.796875 -17.164062 24.796875 -16.875 L 24.796875 -11.59375 C 24.796875 -11.289062 24.6875 -11.03125 24.46875 -10.8125 C 24.257812 -10.59375 24.003906 -10.484375 23.703125 -10.484375 L 12.40625 -10.484375 Z M 12.40625 -7.921875 "/></g></g></g><g fill="#000000" fill-opacity="1"><g transform="translate(279.015212, 240.908328)"><g><path d="M 1.421875 -6.0625 C 1.421875 -9.71875 4.390625 -12.0625 10.328125 -13.09375 L 14.640625 -13.78125 C 14.640625 -14.59375 14.570312 -15.140625 14.4375 -15.421875 C 14.300781 -15.710938 13.976562 -15.859375 13.46875 -15.859375 C 12.96875 -15.859375 12.472656 -15.640625 11.984375 -15.203125 C 11.503906 -14.773438 11.046875 -14.5625 10.609375 -14.5625 L 3.703125 -14.5625 C 3.109375 -14.5625 2.8125 -14.847656 2.8125 -15.421875 C 2.8125 -16.003906 3.019531 -16.628906 3.4375 -17.296875 C 3.851562 -17.960938 4.460938 -18.617188 5.265625 -19.265625 C 6.066406 -19.921875 7.191406 -20.460938 8.640625 -20.890625 C 10.085938 -21.328125 11.707031 -21.546875 13.5 -21.546875 C 17.132812 -21.546875 19.859375 -20.785156 21.671875 -19.265625 C 23.484375 -17.753906 24.390625 -15.585938 24.390625 -12.765625 L 24.390625 -1.09375 C 24.390625 -0.800781 24.28125 -0.546875 24.0625 -0.328125 C 23.851562 -0.109375 23.597656 0 23.296875 0 L 16.1875 0 C 15.882812 0 15.625 -0.109375 15.40625 -0.328125 C 15.1875 -0.546875 15.078125 -0.800781 15.078125 -1.09375 L 15.078125 -2.234375 C 13.804688 -0.472656 11.953125 0.40625 9.515625 0.40625 C 7.078125 0.40625 5.117188 -0.207031 3.640625 -1.4375 C 2.160156 -2.675781 1.421875 -4.21875 1.421875 -6.0625 Z M 12.109375 -5.609375 C 13.878906 -5.609375 14.765625 -6.664062 14.765625 -8.78125 L 12.359375 -8.25 C 11.171875 -7.976562 10.578125 -7.476562 10.578125 -6.75 C 10.578125 -6.425781 10.710938 -6.15625 10.984375 -5.9375 C 11.253906 -5.71875 11.628906 -5.609375 12.109375 -5.609375 Z M 12.109375 -5.609375 "/></g></g></g><g fill="#000000" fill-opacity="1"><g transform="translate(305.236694, 240.908328)"><g><path d="M 10.9375 -20.046875 L 10.9375 -18.625 C 12.832031 -20.300781 14.945312 -21.140625 17.28125 -21.140625 L 19.234375 -21.140625 C 19.523438 -21.140625 19.78125 -21.03125 20 -20.8125 C 20.21875 -20.59375 20.328125 -20.335938 20.328125 -20.046875 L 20.328125 -13.703125 C 20.328125 -13.398438 20.21875 -13.140625 20 -12.921875 C 19.78125 -12.710938 19.523438 -12.609375 19.234375 -12.609375 L 13.984375 -12.609375 C 13.253906 -12.609375 12.675781 -12.4375 12.25 -12.09375 C 11.832031 -11.757812 11.597656 -11.304688 11.546875 -10.734375 L 11.546875 -1.09375 C 11.546875 -0.800781 11.4375 -0.546875 11.21875 -0.328125 C 11 -0.109375 10.742188 0 10.453125 0 L 2.71875 0 C 2.425781 0 2.171875 -0.109375 1.953125 -0.328125 C 1.734375 -0.546875 1.625 -0.800781 1.625 -1.09375 L 1.625 -20.046875 C 1.625 -20.335938 1.734375 -20.59375 1.953125 -20.8125 C 2.171875 -21.03125 2.425781 -21.140625 2.71875 -21.140625 L 9.84375 -21.140625 C 10.132812 -21.140625 10.390625 -21.03125 10.609375 -20.8125 C 10.828125 -20.59375 10.9375 -20.335938 10.9375 -20.046875 Z M 10.9375 -20.046875 "/></g></g></g><g fill="#000000" fill-opacity="1"><g transform="translate(326.783029, 240.908328)"><g><path d="M 25.984375 -12.3125 L 25.984375 -1.09375 C 25.984375 -0.800781 25.875 -0.546875 25.65625 -0.328125 C 25.4375 -0.109375 25.175781 0 24.875 0 L 17.109375 0 C 16.816406 0 16.5625 -0.109375 16.34375 -0.328125 C 16.125 -0.546875 16.015625 -0.800781 16.015625 -1.09375 L 16.015625 -12.03125 C 16.015625 -13.519531 15.335938 -14.265625 13.984375 -14.265625 C 12.628906 -14.265625 11.953125 -13.519531 11.953125 -12.03125 L 11.953125 -1.09375 C 11.953125 -0.800781 11.84375 -0.546875 11.625 -0.328125 C 11.40625 -0.109375 11.148438 0 10.859375 0 L 3.125 0 C 2.832031 0 2.578125 -0.109375 2.359375 -0.328125 C 2.140625 -0.546875 2.03125 -0.800781 2.03125 -1.09375 L 2.03125 -20.046875 C 2.03125 -20.335938 2.140625 -20.59375 2.359375 -20.8125 C 2.578125 -21.03125 2.832031 -21.140625 3.125 -21.140625 L 10.25 -21.140625 C 10.539062 -21.140625 10.796875 -21.03125 11.015625 -20.8125 C 11.234375 -20.59375 11.34375 -20.335938 11.34375 -20.046875 L 11.34375 -18.703125 C 12.050781 -19.546875 13.003906 -20.226562 14.203125 -20.75 C 15.410156 -21.28125 16.707031 -21.546875 18.09375 -21.546875 C 20.3125 -21.546875 22.179688 -20.765625 23.703125 -19.203125 C 25.222656 -17.648438 25.984375 -15.351562 25.984375 -12.3125 Z M 25.984375 -12.3125 "/></g></g></g><g fill="#000000" fill-opacity="1"><g transform="translate(354.59, 240.908328)"><g/></g></g><g fill="#000000" fill-opacity="1"><g transform="translate(366.379505, 240.908328)"><g><path d="M 12.84375 0 L 7.03125 0 C 6.519531 0 6.09375 -0.15625 5.75 -0.46875 C 5.414062 -0.78125 5.21875 -1.140625 5.15625 -1.546875 L 1.421875 -27.4375 L 1.421875 -27.5625 C 1.421875 -27.8125 1.507812 -28.019531 1.6875 -28.1875 C 1.863281 -28.363281 2.070312 -28.453125 2.3125 -28.453125 L 9.875 -28.453125 C 10.769531 -28.453125 11.257812 -28.085938 11.34375 -27.359375 L 12.71875 -15.890625 L 14.390625 -20.984375 C 14.660156 -21.765625 15.125 -22.15625 15.78125 -22.15625 L 19.921875 -22.15625 C 20.566406 -22.15625 21.023438 -21.765625 21.296875 -20.984375 L 22.96875 -15.9375 L 24.359375 -27.359375 C 24.429688 -28.085938 24.914062 -28.453125 25.8125 -28.453125 L 33.375 -28.453125 C 33.625 -28.453125 33.832031 -28.363281 34 -28.1875 C 34.175781 -28.019531 34.265625 -27.8125 34.265625 -27.5625 L 34.265625 -27.4375 L 30.53125 -1.546875 C 30.476562 -1.140625 30.28125 -0.78125 29.9375 -0.46875 C 29.601562 -0.15625 29.175781 0 28.65625 0 L 22.84375 0 C 22.007812 0 21.457031 -0.363281 21.1875 -1.09375 L 17.84375 -9.4375 L 14.515625 -1.09375 C 14.242188 -0.363281 13.6875 0 12.84375 0 Z M 12.84375 0 "/></g></g></g><g fill="#000000" fill-opacity="1"><g transform="translate(402.073252, 240.908328)"><g><path d="M 10.40625 0 L 3.125 0 C 2.832031 0 2.578125 -0.109375 2.359375 -0.328125 C 2.140625 -0.546875 2.03125 -0.800781 2.03125 -1.09375 L 2.03125 -20.046875 C 2.03125 -20.335938 2.140625 -20.59375 2.359375 -20.8125 C 2.578125 -21.03125 2.832031 -21.140625 3.125 -21.140625 L 10.40625 -21.140625 C 10.707031 -21.140625 10.960938 -21.03125 11.171875 -20.8125 C 11.390625 -20.59375 11.5 -20.335938 11.5 -20.046875 L 11.5 -1.09375 C 11.5 -0.800781 11.390625 -0.546875 11.171875 -0.328125 C 10.960938 -0.109375 10.707031 0 10.40625 0 Z M 11.296875 -28.984375 L 11.296875 -24.0625 C 11.296875 -23.769531 11.1875 -23.515625 10.96875 -23.296875 C 10.757812 -23.078125 10.503906 -22.96875 10.203125 -22.96875 L 3.328125 -22.96875 C 3.035156 -22.96875 2.78125 -23.078125 2.5625 -23.296875 C 2.34375 -23.515625 2.234375 -23.769531 2.234375 -24.0625 L 2.234375 -28.984375 C 2.234375 -29.285156 2.34375 -29.539062 2.5625 -29.75 C 2.78125 -29.96875 3.035156 -30.078125 3.328125 -30.078125 L 10.203125 -30.078125 C 10.503906 -30.078125 10.757812 -29.96875 10.96875 -29.75 C 11.1875 -29.539062 11.296875 -29.285156 11.296875 -28.984375 Z M 11.296875 -28.984375 "/></g></g></g><g fill="#000000" fill-opacity="1"><g transform="translate(415.61085, 240.908328)"><g><path d="M 14.234375 -14.03125 L 14.234375 -9.546875 C 14.234375 -8.191406 14.816406 -7.515625 15.984375 -7.515625 L 19.671875 -7.515625 C 19.972656 -7.515625 20.234375 -7.40625 20.453125 -7.1875 C 20.671875 -6.976562 20.78125 -6.722656 20.78125 -6.421875 L 20.78125 -1.09375 C 20.78125 -0.800781 20.671875 -0.546875 20.453125 -0.328125 C 20.234375 -0.109375 19.972656 0 19.671875 0 L 15.078125 0 C 8.304688 0 4.921875 -2.910156 4.921875 -8.734375 L 4.921875 -14.03125 L 1.703125 -14.03125 C 1.410156 -14.03125 1.15625 -14.132812 0.9375 -14.34375 C 0.71875 -14.5625 0.609375 -14.820312 0.609375 -15.125 L 0.609375 -20.046875 C 0.609375 -20.335938 0.71875 -20.59375 0.9375 -20.8125 C 1.15625 -21.03125 1.410156 -21.140625 1.703125 -21.140625 L 4.921875 -21.140625 L 4.921875 -27.765625 C 4.921875 -28.066406 5.023438 -28.320312 5.234375 -28.53125 C 5.453125 -28.75 5.710938 -28.859375 6.015625 -28.859375 L 13.125 -28.859375 C 13.425781 -28.859375 13.6875 -28.75 13.90625 -28.53125 C 14.125 -28.320312 14.234375 -28.066406 14.234375 -27.765625 L 14.234375 -21.140625 L 19.359375 -21.140625 C 19.648438 -21.140625 19.90625 -21.03125 20.125 -20.8125 C 20.34375 -20.59375 20.453125 -20.335938 20.453125 -20.046875 L 20.453125 -15.125 C 20.453125 -14.820312 20.34375 -14.5625 20.125 -14.34375 C 19.90625 -14.132812 19.648438 -14.03125 19.359375 -14.03125 Z M 14.234375 -14.03125 "/></g></g></g><g fill="#000000" fill-opacity="1"><g transform="translate(437.197843, 240.908328)"><g><path d="M 12.15625 -12.03125 L 12.15625 -1.09375 C 12.15625 -0.800781 12.046875 -0.546875 11.828125 -0.328125 C 11.609375 -0.109375 11.351562 0 11.0625 0 L 3.125 0 C 2.832031 0 2.578125 -0.109375 2.359375 -0.328125 C 2.140625 -0.546875 2.03125 -0.800781 2.03125 -1.09375 L 2.03125 -27.765625 C 2.03125 -28.066406 2.140625 -28.320312 2.359375 -28.53125 C 2.578125 -28.75 2.832031 -28.859375 3.125 -28.859375 L 11.0625 -28.859375 C 11.351562 -28.859375 11.609375 -28.75 11.828125 -28.53125 C 12.046875 -28.320312 12.15625 -28.066406 12.15625 -27.765625 L 12.15625 -19.03125 C 13.695312 -20.707031 15.671875 -21.546875 18.078125 -21.546875 C 20.492188 -21.546875 22.488281 -20.757812 24.0625 -19.1875 C 25.632812 -17.613281 26.421875 -15.320312 26.421875 -12.3125 L 26.421875 -1.140625 C 26.421875 -0.835938 26.3125 -0.578125 26.09375 -0.359375 C 25.882812 -0.148438 25.628906 -0.046875 25.328125 -0.046875 L 17.359375 -0.046875 C 17.054688 -0.046875 16.796875 -0.148438 16.578125 -0.359375 C 16.367188 -0.578125 16.265625 -0.835938 16.265625 -1.140625 L 16.265625 -12.03125 C 16.265625 -13.519531 15.578125 -14.265625 14.203125 -14.265625 C 12.835938 -14.265625 12.15625 -13.519531 12.15625 -12.03125 Z M 12.15625 -12.03125 "/></g></g></g><path stroke-linecap="butt" transform="matrix(0.749991, -0.00368017, 0.00368017, 0.749991, 253.131875, 246.832392)" fill="none" stroke-linejoin="miter" d="M -0.00214778 5.999581 L 282.068982 5.998257 " stroke="#ff0000" stroke-width="12" stroke-opacity="1" stroke-miterlimit="4"/></svg>